<svg viewBox="0 0 300 340" fill="none" xmlns="http://www.w3.org/2000/svg">
  <!-- Ears -->
  <ellipse cx="92" cy="78" rx="42" ry="44" fill="#D4A574"/>
  <ellipse cx="92" cy="76" rx="26" ry="28" fill="#E8C9A0"/>
  <ellipse cx="208" cy="78" rx="42" ry="44" fill="#D4A574"/>
  <ellipse cx="208" cy="76" rx="26" ry="28" fill="#E8C9A0"/>
  <!-- Body -->
  <ellipse cx="150" cy="255" rx="78" ry="70" fill="#D4A574"/>
  <ellipse cx="150" cy="250" rx="48" ry="44" fill="#E8C9A0"/>
  <!-- Arms -->
  <path d="M82 210 Q55 235 65 270 Q72 285 85 275 Q95 260 88 230Z" fill="#D4A574"/>
  <path d="M218 210 Q245 235 235 270 Q228 285 215 275 Q205 260 212 230Z" fill="#D4A574"/>
  <!-- Feet -->
  <ellipse cx="112" cy="315" rx="28" ry="16" fill="#D4A574"/>
  <ellipse cx="112" cy="314" rx="18" ry="11" fill="#E8C9A0"/>
  <ellipse cx="188" cy="315" rx="28" ry="16" fill="#D4A574"/>
  <ellipse cx="188" cy="314" rx="18" ry="11" fill="#E8C9A0"/>
  <!-- Head -->
  <circle cx="150" cy="135" r="82" fill="#D4A574"/>
  <ellipse cx="150" cy="150" rx="36" ry="28" fill="#E8C9A0"/>
  <!-- Eyes -->
  <ellipse cx="122" cy="122" rx="9" ry="10" fill="#3D2B1A"/>
  <ellipse cx="178" cy="122" rx="9" ry="10" fill="#3D2B1A"/>
  <circle cx="126" cy="118" r="3.5" fill="white" opacity="0.75"/>
  <circle cx="182" cy="118" r="3.5" fill="white" opacity="0.75"/>
  <!-- Nose -->
  <ellipse cx="150" cy="143" rx="13" ry="10" fill="#3D2B1A"/>
  <!-- Mouth -->
  <path d="M138 153 Q144 162 150 155 Q156 162 162 153" stroke="#3D2B1A" stroke-width="2" fill="none" stroke-linecap="round"/>
  <!-- Cheeks -->
  <circle cx="108" cy="142" r="10" fill="#E8A88A" opacity="0.3"/>
  <circle cx="192" cy="142" r="10" fill="#E8A88A" opacity="0.3"/>
  <!-- Status dot -->
  <circle cx="150" cy="222" r="6" fill="#6AB06D"/>
</svg>
